<?xml version="1.0" standalone="no"?>
<!DOCTYPE svg PUBLIC "-//W3C//DTD SVG 20010904//EN"
 "http://www.w3.org/TR/2001/REC-SVG-20010904/DTD/svg10.dtd">
<svg version="1.0" xmlns="http://www.w3.org/2000/svg"
 width="256.000000pt" height="128.000000pt" viewBox="0 0 256.000000 128.000000"
 preserveAspectRatio="xMidYMid meet">
<metadata>
Created by potrace 1.15, written by Peter Selinger 2001-2017
</metadata>
<g transform="translate(0.000000,128.000000) scale(0.100000,-0.100000)"
fill="#000000" stroke="none">
<path d="M0 640 l0 -640 1280 0 1280 0 0 640 0 640 -1280 0 -1280 0 0 -640z
m2153 500 c-12 -29 -23 -42 -42 -46 -100 -20 -171 -98 -171 -190 0 -29 5 -65
11 -81 21 -58 108 -123 163 -123 18 0 27 -8 35 -31 6 -18 11 -36 11 -40 0 -5
-65 -9 -145 -9 -132 0 -145 2 -155 19 -6 12 -10 114 -10 261 0 147 4 249 10
261 10 17 23 19 160 19 l148 0 -15 -40z m257 21 c14 -26 14 -496 0 -522 -10
-17 -22 -19 -119 -19 -107 0 -109 0 -115 24 -3 13 -8 31 -12 39 -3 10 4 17 23
21 47 12 101 56 123 100 22 46 27 134 10 167 -19 34 -29 20 -14 -18 21 -49 11
-111 -27 -163 -28 -39 -79 -70 -113 -70 -35 0 -48 256 -18 332 10 25 13 26 42
16 45 -15 50 -1 6 17 -27 11 -36 20 -32 31 3 9 9 27 12 40 6 24 8 24 115 24
97 0 109 -2 119 -19z m-2070 -161 c20 -63 38 -121 41 -129 3 -8 20 37 38 100
46 156 41 149 111 149 59 0 59 0 64 -32 9 -62 36 -333 36 -365 l0 -33 -54 0
-54 0 -7 74 c-14 149 -17 151 -50 35 l-30 -104 -51 -3 -51 -3 -29 106 c-32
118 -37 116 -49 -24 l-7 -81 -52 0 c-29 0 -55 2 -57 5 -4 3 34 404 40 423 1 2
29 2 63 0 l63 -3 35 -115z m660 70 l0 -49 -97 -3 -98 -3 -3 -32 -3 -33 80 0
81 0 0 -45 0 -45 -80 0 -80 0 0 -35 0 -35 100 0 100 0 0 -50 0 -50 -155 0
-155 0 0 215 0 215 155 0 155 0 0 -50z m405 0 l0 -45 -55 -5 -55 -5 -3 -162
-2 -163 -55 0 -55 0 -2 163 -3 162 -55 5 c-54 5 -55 6 -58 38 -6 64 -9 63 175
60 l168 -3 0 -45z m375 0 l0 -49 -97 -3 -98 -3 -3 -32 -3 -32 78 -3 78 -3 0
-40 0 -40 -77 -3 -78 -3 0 -34 0 -35 100 0 100 0 0 -50 0 -51 -157 3 -158 3
-3 200 c-1 110 0 205 2 212 4 10 44 13 161 13 l155 0 0 -50z m-930 -645 l65
-106 3 106 3 105 49 0 50 0 0 -201 0 -200 -52 3 -52 3 -66 110 -65 109 -5
-109 -5 -110 -50 0 -50 0 -3 185 c-1 101 0 190 2 197 4 8 24 13 58 13 l53 0
65 -105z m548 58 l-3 -48 -98 -3 -98 -3 3 -27 c3 -26 5 -27 78 -32 l75 -5 3
-37 3 -37 -78 -3 -78 -3 0 -30 0 -30 98 -3 97 -3 0 -44 0 -45 -155 0 -155 0 0
200 0 200 156 0 155 0 -3 -47z m380 -5 l3 -48 -55 0 -56 0 0 -155 0 -155 -55
0 -55 0 0 155 0 155 -49 0 c-35 0 -51 4 -55 16 -8 21 -8 69 1 78 4 3 77 5 162
4 l156 -3 3 -47z"/>
</g>
</svg>
